<svg version="1.2" xmlns="http://www.w3.org/2000/svg" viewBox="0 0 1048 1048" width="1048" height="1048"><style>.a{fill:none}.b{fill:#0067aa}.c{fill:#d82332}.d{fill:#04305c}.e{fill:#0071ba}.f{fill:#a8a8aa}</style><path class="a" d="m50 0h625v132.8l-625-0.1z"/><path fill-rule="evenodd" class="b" d="m147.8-5.1h351.1v33.6h50l35.5 37.9v637.6l-34.2 39.2h-456.3l-36.8-36.4v-639l31.8-38.8 58.9-0.5zm-26.3 640.5h124.9v-79.9h-124.9zm0-180.8h393.2v-262.1h-393.2zm63.1-378.3h268.3v-32.3h-268.3zm205.6 560.7h125.9l-1.4-81.7-124.8-0.4z"/><path fill-rule="evenodd" class="c" d="m806.7 676l-17.7 87.7c-3.2 15.1-6 29.2-8.8 43.9-5.6 30.1-43.2 203.8-43.2 224.3 0 10 8.5 16.8 18.4 16.8h86.8c13 0 16-7.5 18.1-18.5l19.2-95.8c17.8-82.2 33.2-174.9 51-255.4 4.6-20.4 8.1-43.2 12.7-63.6 6.1-27.4 8.3-45.9-22.1-45.9h-163.1c-15 0-15.8 20.4-18.3 33.7-15.4 82-20 72.8 67 72.8z"/><path fill-rule="evenodd" class="d" d="m830.3 443.3c0 46.3 34.4 85.5 77.6 85.5 25.5 0 43.6-7.8 58.9-24.1 50.6-54.1 17.4-146.9-57.6-146.9-43.2 0-78.9 37.8-78.9 85.5z"/><path class="b" d="m124.1 929.6h93.4l48.7-149.9h-94.7z"/><path fill-rule="evenodd" class="b" d="m421.3 929.6h93.4l-35.3-112.3c-3.9-12.3-9.3-25.1-12-37.6h-93.4c0.6 7.3 8.5 29.4 11.3 37z"/><path fill-rule="evenodd" class="e" d="m1421.7 942.2h-220l113.5-862.7h220.1zm1828.6 0h-86.1l23.5-181.8c0 0 246.6 0 266.9 0 43.6 0 73.9-3.8 90.7-11.7q25.1-11.8 31-48.1 4.6-27.4-5.3-39.9-10-12.5-42.7-27.5l-149.8-72.5q-92.5-44.9-123.5-107.3-31-62.5-20.5-152.4 16.4-137.4 92.5-187.3c50.7-33.3 130.3-34.3 238.7-34.3 106.9 0 213.8 0.1 279.3 0.1l-21.8 172.8c0 0-253.8 0-268 0q-55 0-76.1 10-21 10-26.9 47.4-4.7 27.5 6.5 41.9 11.1 14.3 50.9 31.8l139.2 65q94.8 43.7 124.7 103 29.8 59.3 19.3 159.2-16.4 144.9-86.6 196.1c-46.8 34.1-127.2 35.4-241.1 35.4-71.6 0-143.7 0.1-214.8 0.1zm-490 0h-71.7c-64.5-1.5-124.9-6.9-156.9-16-38.3-16.4-68.1-37.1-89.5-66.4q-72.6-99.2-39.8-357.7 32.8-253.6 120.6-346.6c27.9-29.6 63.6-49.5 107.1-65 67-17.9 279.5-15.8 347.1 2.5 42.3 16.7 75.4 38.3 99.3 70q76.1 100.5 43.3 356.5-16.4 131.2-46.2 216.1-29.8 84.9-79.6 134.9c-26 26.1-55.2 43.5-87.5 57.1-32.4 8.4-87.3 13.2-146.2 14.6zm-450.3-422.7q-18.8 136.2-46.3 219.2-27.5 83.1-77.8 131.8-50.3 48.7-116.4 66.1c-22.5 5.9-101.3 5.5-171.5 5.5h-335.9l81.1-611.7 218.4-0.1-58.4 447.8 92.5-0.1q57.3 0.1 89.5-19.9 32.2-20 56.2-80 23.9-59.9 38-176 19.9-162.4 1.2-211.1c-12.5-32.5-46.5-47.7-101.8-47.7l-106.2-0.1-218.7 0.1 21.7-163.9c0 0 274.2 0 310.2 0 90.5 0 173.6 6.3 211.8 27.4q76.1 39.3 105.3 139.2 29.3 100 7.1 273.5zm582.2-227.2c-12.1-33.3-39-49-94.2-49-57.8 0-88 17.1-109.4 53.3q-32.2 54.3-56.8 222.9-21.1 157.4-2.9 208.6c12.1 34.1 32.7 50.3 93 50.3 66.7 0 89.3-17.2 111.2-53.4q32.8-54.3 56.2-222.9 21-159.9 2.9-209.8z"/><path fill-rule="evenodd" class="f" d="m3923.5 942.2h-37.9q-65-0.1-57.3-67.6l5.7-46.1q8.7-60.4 67.2-60.4h36.5q31.7 0 47 17.9 15.4 17.9 10.6 50.7l-5.8 45.1q-6.7 60.3-66 60.4z"/><path fill-rule="evenodd" class="f" d="m5035.6 433.2l-16.7 134.7-254.9 238.6h226.5l-16.3 135.7h-433.8l16.3-135.2 247.6-238.6h-217.9l16.4-135.2zm-712.6 509h-34.2c-86.3 0-148.3-9.4-185.7-52.7q-56.1-65.1-36.9-209.5 18.2-141.3 77.2-201.2c39.4-40 102.2-46.1 188.6-46.1 81.3 0 134.2 0 188 0l-17.4 135.7h-148.5q-53.8 0-75.8 24.6-22.1 24.5-30.7 93.2-9.6 74.7 5.2 97.3 14.9 22.5 67.7 22.5c59.5 0 150.7 0 150.7 0l-18.1 136.2z"/></svg>