<svg xmlns="http://www.w3.org/2000/svg" viewBox="0 0 40000 8500" xmlns:xlink="http://www.w3.org/1999/xlink" xml:space="preserve" width="40000" height="8500" version="1.1" style="shape-rendering:geometricPrecision; text-rendering:geometricPrecision; image-rendering:optimizeQuality; fill-rule:evenodd; clip-rule:evenodd"><rect id="backgroundrect" width="100%" height="100%" x="0" y="0" fill="none" stroke="none"/>
 <defs>
  <style type="text/css">
   <![CDATA[
    .fil0 {fill:#0067AA}
    .fil3 {fill:#0071BA}
    .fil2 {fill:#04305C}
    .fil4 {fill:#A8A8AA}
    .fil1 {fill:#D82332}
   ]]>
  </style>
 </defs>
 
<g class="currentLayer" style=""><title>Layer 1</title><g id="Vrstva_x0020_1" class="">
  <metadata id="CorelCorpID_0Corel-Layer" transform="translate(2431.5,691.8798828125) scale(1.0326526165008545,1.076945185661316) translate(-2431.5,-691.8798828125) translate(2354.615478515625,7790.396484375) scale(1.0422190427780151) translate(-2354.615478515625,-7790.396484375) translate(2259.232666015625,7474.81689453125) scale(1,1.0218124389648438) translate(-2259.232666015625,-7474.81689453125) translate(38244.03125,7315.25341796875) scale(1.061324119567871) translate(-38244.03125,-7315.25341796875) translate(49.463497161865234,6892.572265625) scale(0.9689808487892151) translate(-49.463497161865234,-6892.572265625) "/>
  <g id="_475873016">
   <g id="svg_1">
    <path class="fil0" d="M2719.261994100775,4438.168404994707 l998.4057933621191,3.113801639777564 l11.47770974687121,653.4855297419541 l-1007.3931610713373,-0.035384109542926916 l-2.4903420376528658,-656.5639472721887 zm-2147.250382172139,5.331205837800979 l999.4572711113502,0 l0,639.0370183452588 l-999.4572711113502,0 l0,-639.0370183452588 zm0,-2903.690797311664 l3145.656175534258,0 l0,2096.4849010120543 l-3145.656175534258,0 l0,-2096.4849010120543 zm504.98602430183115,-1188.3871137023796 l2146.1989044229085,0 l0,257.855800942489 l-2146.1989044229085,0 l0,-257.855800942489 zm-294.579792587249,-123.3136217571001 l-471.1948498975903,3.868662643360003 l-254.72325179796917,310.0355678151251 l0,5112.296146762071 l294.579792587249,291.49429441463144 l3650.6421998360897,0 l273.5391694157908,-313.916025161666 l0,-5101.079384036966 l-284.0539469081029,-302.6992624365583 l-399.7829084445401,0 l0,-269.07256366759685 l-2809.0062047909264,0 l0,269.07256366759685 z" id="svg_2"/>
    <path class="fil1" d="M6053.24336861576,5407.669417064541 l-140.89801839698214,701.9027862998591 c-26.021307246763946,120.43571418094204 -48.379044651469684,233.64127531194603 -70.49328194582712,350.8924196340247 c-45.42383876678827,240.8596336587031 -346.20181598108445,1630.947966458947 -346.20181598108445,1794.8353671586028 c0,79.88552464474787 68.37925826053069,134.53038448220792 147.2843622002075,134.53038448220792 l694.3627010317892,0 c104.00775167921772,0 128.01464892219133,-60.589390240671754 144.79402016255463,-148.38916071985426 l153.91420611378112,-766.5259650284244 c142.20406444339565,-657.4485500107619 265.47046121379555,-1398.5451349810032 408.2722077462279,-2042.5949021781769 c36.17083457355363,-163.15612910243576 64.78209753947655,-345.84428667256714 101.00827304720026,-508.9650316654599 c48.73322663015809,-219.4522473852324 66.33164369623834,-367.7352557764578 -176.74787555234943,-367.7352557764578 l-1304.5629093777454,0 c-120.00128165436611,0 -126.38762545759145,163.29766554060743 -146.4099754403205,269.99255051571294 c-123.05610122055361,655.7501127527014 -159.93529975148402,582.0568072779657 535.6781063925484,582.0568072779657 z" id="svg_3"/>
    <path class="fil2" d="M6242.608977158883,3546.6067915447593 c0,369.8111235363096 275.3543520565689,683.8804798393284 620.7149858382684,683.8804798393284 c204.07522884552688,0 348.5925443372312,-62.58269507825664 470.91814522673997,-193.26800632346652 c405.02922900386216,-432.7358650068145 139.005358448366,-1174.4929533551901 -460.3922995475938,-1174.4929533551901 c-345.7148157603879,0 -631.2408315174146,301.6967126661754 -631.2408315174146,683.8804798393284 z" id="svg_4"/>
    <polygon class="fil0" points="593.052317602811,7436.889931345795 1340.0109346289864,7436.889931345795 1729.2791189524905,6237.296845031728 971.7944861495416,6237.296845031728 " id="svg_5"/>
    <path class="fil0" d="M2970.7090625958763,7436.8891258354915 l746.9587248670176,0 l-282.7146963011874,-898.331773075827 c-30.714218464385347,-98.58012918659423 -74.07937448004726,-200.88738457837673 -96.02758897189453,-301.2603086484792 l-746.9587248670176,0 c4.582229349281275,58.69044302853468 68.15789452385043,235.43407019545435 90.23892725770584,296.2121756870217 l288.5033580153761,903.3799060372846 z" id="svg_6"/>
   </g>
   <g id="svg_7">
    <path class="fil3" d="M10973.926803094308,7537.438970453308 l-1760.2512295208837,0 l908.2222070385833,-6901.788513379694 l1760.1958885867136,0 l-908.1668661044132,6901.788513379694 zm14628.955356756645,0.2123046572575613 l-688.2530618994142,0 l187.74965326535806,-1453.8740876029597 c0,0 1972.35089382107,-0.7784504099443913 2134.7322628628713,-0.7784504099443913 c349.47799928395216,0 591.3068134202964,-29.81700964150637 725.6413970247091,-93.18994983288837 c134.1353562414004,-63.21960905002932 216.8147118914755,-191.38085381451037 248.11554425806355,-384.6370654347959 c24.85914762919261,-146.4784188045362 10.824686723664456,-253.07894615419386 -42.1365872770865,-319.7426085330681 c-53.10516042959312,-66.51033123752151 -167.0964166330903,-139.82620621046595 -341.77454124747936,-219.79429377748065 l-1198.396861265895,-579.4619725781513 c-493.1873371367736,-239.72734215332946 -822.5212363828225,-526.0791459810555 -987.8356749356369,-859.1733585149881 c-165.46939316849046,-332.98806020530367 -220.01341788650518,-739.3391741962758 -163.85343789072456,-1218.9000108315636 c87.33906230719451,-732.5690145703958 333.88292403482825,-1232.1336678006182 739.6537215565692,-1498.540628549314 c405.6933202139029,-266.3715766391534 1042.3575632799837,-273.7904449399871 1910.0812746929143,-273.7904449399871 c855.0617056748199,0 1709.90204761296,0.047178812723902556 2234.3238079953176,0.047178812723902556 l-174.52316999871286,1382.9643320789341 c0,0 -2030.2817837102925,-0.28307287634341494 -2144.107017111279,-0.28307287634341494 c-293.46190571701374,0 -496.2089521424591,26.691413298547825 -608.5731848813563,79.90911405110982 c-112.35316455206332,53.38282659709565 -184.207833478474,179.85742880669724 -215.3426430425518,379.6597006924242 c-25.01410224486879,146.58457113316499 -7.902685399485095,258.20964203791823 51.48920515182726,334.6629080570022 c59.248004122470185,76.66557067634153 194.9882474548024,161.59922828254693 407.30927549166876,254.80097281861632 l1114.1568912722241,519.4859069028902 c505.6390473250379,233.25205010697383 837.9834933899384,507.9860713014389 997.1882928103777,824.2728318024813 c159.13839029943514,316.392912829671 210.6386636380964,741.0022273447931 154.4786836423158,1273.792559435824 c-87.49401692287068,772.7299789016178 -318.3431897198744,1295.5066079920005 -692.8795639960314,1568.5068078188615 c-374.481033341987,273.1889150777573 -1017.4984156507909,283.3441545165773 -1928.7643740687276,283.3441545165773 c-572.457691241973,0 -1149.8849983724174,0.4599934240580495 -1718.4798924093197,0.7194768940395135 zm-3919.6323444631007,0 l-573.7194645410503,0 c-516.0320747621759,-11.806497884156594 -998.9259981433177,-55.37613143468054 -1255.3980234610608,-128.25560238992887 c-306.3010024444685,-130.55556951021913 -544.8868378384471,-296.45986445382215 -715.912460797612,-530.4431861580166 c-387.08769814592756,-529.4760204971765 -493.12092801576944,-1483.6321237285615 -318.3321215330404,-2862.3503626623437 c174.70026098805707,-1352.0268256352351 496.2642930766291,-2276.1418198646743 964.3821870343638,-2772.403956204225 c223.2453284420369,-236.58995110718996 508.9816397489098,-396.2902321775998 857.1535929864484,-520.08743676512 c535.9880156239008,-143.23487542976792 2236.0947178887595,-125.93204586327668 2777.1630312694724,20.204326549011235 c337.92281222924294,133.68116585317765 602.6627731119936,306.6268985958232 794.3527008902602,559.8591758913697 c405.6933202139029,536.1872066071517 521.1234407058217,1487.052587651044 346.44531609143263,2852.313070255334 c-87.51615329653872,699.3551304127684 -210.70507275910052,1275.5263808034274 -369.84346305853563,1728.3958041401675 c-159.18266304677118,453.0345491812736 -371.44835014946756,812.702227981944 -636.6753112529146,1079.0148311051923 c-208.53570813963398,209.34418675913628 -441.98590484263065,348.5570684041914 -700.5608856588362,457.11551648189106 c-258.81848092655383,67.51288100790445 -698.0262708738472,105.75130872062742 -1169.0550979689274,116.6378197566679 zm-3602.916178207826,-3381.163971483919 c-99.90145436379898,726.0465437113162 -223.25639662887093,1310.5330598445628 -369.83239487170164,1753.3533960711118 c-146.73095285850687,443.04443558698716 -354.34800149091785,794.2789016132601 -622.5965776000505,1054.0572391742483 c-268.469939845813,259.76654285780705 -579.0543305950443,436.2742759611072 -931.6203540056862,529.4878152003575 c-179.97978610788113,47.17881272390249 -809.903503392048,43.663991175971745 -1371.6803943391985,43.663991175971745 l-2687.1565359352808,0.33025168906731767 l648.8613849571627,-4893.799270334499 l1747.489610101267,-0.7194768940395135 l-467.59768917653616,3581.98058784321 l739.6758579302372,-0.28307287634341494 c305.7697294764359,0 544.5105194860906,-53.21770075256199 716.2555745894664,-159.81822810221965 c171.6122368613675,-106.49437502102887 321.43121384656394,-319.7426085330681 449.4347945819212,-639.4380382534122 c127.84862611968116,-319.6954297203442 229.37710394808,-789.2543580581644 304.31979700118023,-1408.700374419823 c106.02216168300802,-865.7665975931534 109.09911762286355,-1428.6334227956718 9.30834512740471,-1688.41176035666 c-99.90145436379898,-259.778337560988 -371.4040774021314,-381.44070087275156 -814.5521418623334,-381.44070087275156 l-849.0406120371172,-1.120496802192684 l-1749.5150882918917,1.1087020990117082 l173.5823741178218,-1311.028437378164 c0,-0.01179470318097563 2193.6150168198187,-0.4481987208770737 2481.177578954303,-0.4481987208770737 c723.9701008127732,0 1388.636856568906,50.48132961457564 1694.6722225293584,219.28712154069868 c405.6933202139029,209.8513589959182 686.5485611269761,581.1957939457546 842.6653364207258,1113.9743313336046 c155.95075249123948,532.9436632323834 174.67812461438902,1262.2809291311917 56.14891180894662,2187.9646188837014 zm4657.93574722592,-1818.2950317855632 c-96.81343023710943,-266.30080842006754 -312.0675277849891,-391.94978140700084 -753.6881824620975,-391.94978140700084 c-462.3513686172142,-0.01179470318097563 -703.8702735222059,137.20778210428935 -875.4714421967396,426.8974869322316 c-171.7007823560396,289.760473047028 -322.9918281901597,884.1899239618373 -454.0834330522066,1783.3473262603327 c-112.35316455206332,839.2285154359582 -120.2558499515484,1395.4077439348632 -23.39814696710293,1668.4787119808109 c96.72488474243731,273.1653256713953 261.6187321955591,402.77731892713643 744.3244964005225,402.77731892713643 c533.3316507837378,0 714.6506874985345,-138.03341132695766 889.4948349154337,-427.80567907716664 c174.67812461438902,-289.7014995311232 324.5081697864195,-884.1191557427514 449.4237263950873,-1783.3355315571514 c112.36423273889731,-852.473967108194 120.11196352270622,-1411.9321230914102 23.39814696710293,-1678.4098520591926 z" id="svg_8"/>
    <path class="fil4" d="M30988.241282181858,7537.651275110566 l-303.3015238124511,0 c-346.8327026306232,-0.6722980813156106 -499.8171810503472,-180.918952092985 -458.80954883033,-540.7753461445511 l46.043657229492986,-368.69062673411685 l-0.011068186834012755,0 c46.08792997682904,-322.27846971697784 225.2376020721592,-483.4530886850096 537.5264935938287,-483.4530886850096 l291.77954131824384,0 c168.93373564753642,0 294.2920197295647,47.89828961794199 376.274079609097,143.42359068066352 c81.82710526385618,95.6314533913503 109.98457256958459,230.77516243896898 84.43919735668318,405.5726635810276 l-46.08792997682904,360.48151332015783 c-35.761311660695156,321.7241186674719 -211.7454823214977,482.76899590051306 -527.8528983009015,483.44129398182866 z" id="svg_9"/>
    <path class="fil4" d="M39885.148700405814,3465.5064124723717 l0,0.4599934240580495 l-134.29031085707655,1076.962552751703 l-2038.71574207781,1909.0906568727135 l1812.1610257724035,0 l-130.52712733351223,1085.63165958972 l-3470.7509592228803,0 l130.56033189401424,-1081.5506922891022 l1981.0947614199401,-1909.0906568727135 l-1743.08447174133,0 l130.5824682676823,-1081.5035134763787 l3462.9700238785695,0 zm-5700.381856000577,4072.1448626381944 l-25.146920486876937,0 l-25.600716147071463,0 l-26.07664818093401,0 l-26.55258021479656,0 l-27.03958043549312,0 l-113.38250592762648,0 l-29.718081649324205,0 c-691.0643813552533,0 -1186.3436058036552,-75.04969634054787 -1485.804468784704,-421.9437115962219 c-299.4387266073806,-346.8350417397691 -398.08947585893617,-905.4321843907743 -295.63127033648027,-1675.6145074053013 c97.17868040263184,-753.764096186609 303.3236601861191,-1290.4584750305423 618.1693028664455,-1609.9887789063528 c314.7903017461563,-319.53030387581055 817.7619160441972,-368.7260108436598 1508.8262973994506,-368.7260108436598 c650.0456809484022,0 1073.7248047675757,0.047178812723902556 1503.7570678294728,0.047178812723902556 l-139.51449504273054,1085.5844807769959 l-1187.6053791027327,0 c-286.78778905610403,0 -488.97035795301474,65.55496027986248 -606.6583885590723,196.6648808395875 c-117.79871247439758,131.0627417470011 -199.64795411192176,379.74226361469107 -245.7026795282488,745.6139562885547 c-51.23463685464496,398.76711984560467 -37.222312322784845,658.2741792334303 42.225132771758595,778.3914364284861 c79.3367632262033,120.17623071096058 259.792481367947,180.19947519894552 541.3450180515631,180.19947519894552 c476.08698847822393,0 1205.5469099606676,0 1205.5469099606676,0 l-144.57265642587438,1089.7126268903373 l-1040.863358057392,0.058973515904878177 z" id="svg_10"/>
   </g>
  </g>
 </g></g></svg>